<svg width="80" height="80" viewBox="0 0 80 80" fill="none" xmlns="http://www.w3.org/2000/svg">
<path d="M40 0C34.7471 0 29.5457 1.03463 24.6927 3.04482C19.8396 5.05501 15.4301 8.00139 11.7157 11.7157C4.21427 19.2172 0 29.3913 0 40C0 50.6087 4.21427 60.7828 11.7157 68.2843C15.4301 71.9986 19.8396 74.945 24.6927 76.9552C29.5457 78.9654 34.7471 80 40 80C50.6087 80 60.7828 75.7857 68.2843 68.2843C75.7857 60.7828 80 50.6087 80 40C80 34.7471 78.9654 29.5457 76.9552 24.6927C74.945 19.8396 71.9986 15.4301 68.2843 11.7157C64.5699 8.00139 60.1604 5.05501 55.3073 3.04482C50.4543 1.03463 45.2529 0 40 0ZM20.28 65.12C22 61.52 32.48 58 40 58C47.52 58 58 61.52 59.72 65.12C54.28 69.44 47.44 72 40 72C32.56 72 25.72 69.44 20.28 65.12ZM65.44 59.32C59.72 52.36 45.84 50 40 50C34.16 50 20.28 52.36 14.56 59.32C10.48 54 8 47.28 8 40C8 22.36 22.36 8 40 8C57.64 8 72 22.36 72 40C72 47.28 69.52 54 65.44 59.32ZM40 16C32.24 16 26 22.24 26 30C26 37.76 32.24 44 40 44C47.76 44 54 37.76 54 30C54 22.24 47.76 16 40 16ZM40 36C38.4087 36 36.8826 35.3679 35.7574 34.2426C34.6321 33.1174 34 31.5913 34 30C34 28.4087 34.6321 26.8826 35.7574 25.7574C36.8826 24.6321 38.4087 24 40 24C41.5913 24 43.1174 24.6321 44.2426 25.7574C45.3679 26.8826 46 28.4087 46 30C46 31.5913 45.3679 33.1174 44.2426 34.2426C43.1174 35.3679 41.5913 36 40 36Z" fill="black"/>
</svg>
