<svg width="80" height="80" viewBox="0 0 80 80" fill="none" xmlns="http://www.w3.org/2000/svg">
<path d="M40.0091 54C36.1919 54 32.531 52.525 29.8319 49.8995C27.1327 47.274 25.6163 43.713 25.6163 40C25.6163 36.287 27.1327 32.726 29.8319 30.1005C32.531 27.475 36.1919 26 40.0091 26C43.8263 26 47.4871 27.475 50.1863 30.1005C52.8855 32.726 54.4018 36.287 54.4018 40C54.4018 43.713 52.8855 47.274 50.1863 49.8995C47.4871 52.525 43.8263 54 40.0091 54ZM70.5628 43.88C70.7273 42.6 70.8507 41.32 70.8507 40C70.8507 38.68 70.7273 37.36 70.5628 36L79.2396 29.48C80.0209 28.88 80.2265 27.8 79.7331 26.92L71.5086 13.08C71.0152 12.2 69.9049 11.84 69.0002 12.2L58.7608 16.2C56.6224 14.64 54.4018 13.28 51.8111 12.28L50.2896 1.68C50.1251 0.72 49.2616 0 48.2335 0H31.7847C30.7566 0 29.893 0.72 29.7285 1.68L28.207 12.28C25.6163 13.28 23.3957 14.64 21.2574 16.2L11.018 12.2C10.1133 11.84 9.003 12.2 8.50953 13.08L0.285106 26.92C-0.249481 27.8 -0.0027482 28.88 0.778572 29.48L9.45534 36C9.29085 37.36 9.16749 38.68 9.16749 40C9.16749 41.32 9.29085 42.6 9.45534 43.88L0.778572 50.52C-0.0027482 51.12 -0.249481 52.2 0.285106 53.08L8.50953 66.92C9.003 67.8 10.1133 68.12 11.018 67.8L21.2574 63.76C23.3957 65.36 25.6163 66.72 28.207 67.72L29.7285 78.32C29.893 79.28 30.7566 80 31.7847 80H48.2335C49.2616 80 50.1251 79.28 50.2896 78.32L51.8111 67.72C54.4018 66.68 56.6224 65.36 58.7608 63.76L69.0002 67.8C69.9049 68.12 71.0152 67.8 71.5086 66.92L79.7331 53.08C80.2265 52.2 80.0209 51.12 79.2396 50.52L70.5628 43.88Z" fill="black"/>
</svg>
