<svg width="50" height="80" viewBox="0 0 50 80" fill="none" xmlns="http://www.w3.org/2000/svg">
<path d="M7.11006e-08 40C-0.000367099 46.2802 1.42135 52.4723 4.15004 58.0749C6.87873 63.6775 10.8377 68.5332 15.7064 72.2488C20.5752 75.9644 26.2169 78.4355 32.1747 79.462C38.1325 80.4886 44.2391 80.0417 50 78.1577C42.1907 75.6055 35.3681 70.5288 30.5246 63.6661C25.6812 56.8035 23.0695 48.5127 23.0695 40C23.0695 31.4873 25.6812 23.1965 30.5246 16.3339C35.3681 9.47117 42.1907 4.3945 50 1.84232C44.2391 -0.0417491 38.1325 -0.488597 32.1747 0.537959C26.2169 1.56452 20.5752 4.03562 15.7064 7.75122C10.8377 11.4668 6.87873 16.3225 4.15004 21.9251C1.42135 27.5277 -0.000367099 33.7198 7.11006e-08 40Z" fill="black"/>
</svg>
